<svg width="42" height="32" viewBox="0 0 42 32" fill="none" xmlns="http://www.w3.org/2000/svg">
<path d="M5.21909 18.1036C4.39321 15.8346 5.64515 13.3535 8.01473 12.5627C10.3843 11.7719 12.9754 12.9707 13.8013 15.2397L13.9896 15.7541L17.0361 9.05872C18.0395 6.85552 20.7178 5.84741 23.0187 6.80822C24.114 7.26571 24.9259 8.08683 25.3682 9.05872L28.4155 15.7541L32.6298 4.2643C33.4557 1.99457 36.0467 0.796521 38.4163 1.58734C40.7859 2.37816 42.0378 4.85926 41.212 7.12824L33.1832 29.0169C32.7903 30.1484 31.9174 31.1226 30.6855 31.6362C28.3846 32.597 25.7063 31.5889 24.7029 29.3857L21.2018 21.6919L17.7007 29.3857L17.6999 29.385C17.2113 30.4574 16.2758 31.3398 15.0301 31.7552C12.6605 32.546 10.0694 31.3472 9.24351 29.0783L5.21755 18.1029L5.21909 18.1036Z" fill="#FFCB00"/>
<path fill-rule="evenodd" clip-rule="evenodd" d="M6.57657 0C5.88727 0.71308 5.14169 0.839355 4.39533 1.6282C3.92875 1.29766 3.46296 0.445675 2.99639 0.622459C2.88072 1.58437 2.35397 2.10284 2.23831 3.15835C1.65685 3.15092 0.752623 2.72307 0.484558 3.12641C0.985518 3.96948 0.880793 4.6833 1.4388 5.60139C0.963635 5.92079 -0.0320321 6.07901 0.000792096 6.55514C0.927685 6.95699 1.28406 7.59282 2.30396 8.02438C2.11717 8.54805 1.40911 9.2329 1.73031 9.5991C2.72911 9.40671 3.40982 9.7224 4.50162 9.50105C4.67433 10.0292 4.52506 10.9785 5.01117 11.0958C5.70048 10.3827 6.44606 10.2565 7.19242 9.46762C7.65899 9.79817 8.12478 10.6501 8.59135 10.4734C8.70702 9.51145 9.23377 8.99298 9.34944 7.93747C9.93089 7.9449 10.8351 8.37275 11.1032 7.96941C10.6022 7.12634 10.707 6.41252 10.1489 5.49443C10.6241 5.17503 11.6198 5.01682 11.587 4.54069C10.6601 4.13884 10.3037 3.50301 9.28379 3.07144C9.47057 2.54778 10.1786 1.86292 9.85743 1.49673C8.85864 1.68911 8.17793 1.37342 7.08613 1.59477C6.91341 1.06665 7.06268 0.117361 6.57657 0Z" fill="#FFCB00"/>
</svg>
